<svg fill="#000000" height="800px" width="800px" version="1.1" id="Capa_1" xmlns="http://www.w3.org/2000/svg" xmlns:xlink="http://www.w3.org/1999/xlink" viewBox="0 0 58.036 58.036" xml:space="preserve">
<g>
	<g>
		<path d="M53,45.518v-16.5c0-10.201-8.301-18.5-18.505-18.5H23.505C13.301,10.518,5,18.817,5,29.018v16.5H0v2h6h46h6.036v-2H53z     M7,45.518v-16.5c0-9.098,7.404-16.5,16.505-16.5h10.989c9.101,0,16.505,7.402,16.505,16.5v16.5H7z"/>
		<polygon points="12,33.518 21,33.518 21,36.518 23,36.518 23,33.518 24,33.518 24,31.518 12,31.518   "/>
		<polygon points="34,33.518 43,33.518 43,36.518 45,36.518 45,33.518 46,33.518 46,31.518 34,31.518   "/>
	</g>
</g>
</svg>